<svg width="244" height="165" viewBox="0 0 244 165" fill="none" xmlns="http://www.w3.org/2000/svg">
<path d="M71.8887 69.8384V110.158H59.346V59.4782L85.2406 59.5045C96.2391 59.5045 99.9858 67.4411 99.9858 74.6502V110.158H87.4657V74.7166C87.4657 71.6967 85.938 69.8385 82.2532 69.8385L71.8887 69.8384ZM157.178 69.2329C152.891 69.2329 149.573 71.4882 148.187 74.5497C147.366 76.3879 147.083 77.7967 146.987 80.0473H166.283C166.036 74.5497 163.599 69.2329 157.178 69.2329ZM146.987 88.7825C146.987 95.3474 150.975 100.179 158.096 100.179C163.636 100.179 166.389 98.6082 169.592 95.3474L177.339 102.916C172.379 107.927 167.174 110.97 158.004 110.97C145.997 110.97 134.506 104.271 134.506 84.7462C134.506 68.0636 144.538 58.6194 157.721 58.6194C171.084 58.6194 178.803 69.6762 178.803 84.1592V88.7825H146.987ZM123.918 110.095C113.7 110.095 109.365 102.816 109.365 95.627V45.6702H121.888V59.4782H131.328V69.8384H121.888V94.8238C121.888 97.7679 123.246 99.4022 126.234 99.4022H131.328V110.095H123.918ZM48.1859 52.4746H35.5571V40.199H48.1859V52.4746ZM48.2177 110.691C38.7604 109.761 35.5436 103.891 35.5436 97.1176L35.5573 59.4782H48.2178L48.2177 110.691ZM198.736 109.608C189.298 108.677 186.096 102.816 186.096 96.0518V38.4519H198.736V109.608ZM242.921 46.7762C231.467 -10.3695 123.062 -13.9872 53.1886 29.5406V34.3461C122.991 -2.36185 221.988 -2.1456 231.008 50.4881C234.026 67.8921 224.441 86.0376 207.325 96.4673V110.113C227.927 102.4 249.056 77.3904 242.921 46.7762ZM115.907 146.759C67.6832 151.321 17.4306 144.158 10.3992 105.598C6.95742 86.589 15.4199 66.4386 26.6464 53.922V47.2288C6.43663 65.3635 -4.53169 88.3222 1.78271 115.45C9.84216 150.236 52.9712 169.95 118.801 163.403C144.846 160.802 178.936 152.232 202.636 138.922V120.011C181.131 133.115 145.545 143.951 115.907 146.759Z" fill="#0071C5"/>
<path d="M213.346 75.5834C213.346 74.9563 212.988 74.757 212.17 74.757H211.38V76.5319C211.495 76.5319 212.069 76.5535 212.17 76.5535C212.988 76.5535 213.346 76.2739 213.346 75.6869V75.5834ZM214.578 79.9842H213.642C213.557 79.9842 213.483 79.9301 213.447 79.8576L212.17 77.6425C212.147 77.5978 212.037 77.5436 211.993 77.5436H211.42V79.7402C211.42 79.8576 211.341 79.9842 211.19 79.9842H210.343C210.238 79.9842 210.132 79.8576 210.132 79.7402V74.1839C210.132 73.8626 210.254 73.7283 210.52 73.6865C210.819 73.6464 211.631 73.6186 212.069 73.6186C213.624 73.6186 214.564 74.0882 214.564 75.5834V75.6869C214.564 76.6121 214.114 77.1003 213.417 77.3397L214.741 79.6305C214.749 79.6768 214.78 79.7402 214.78 79.7942C214.78 79.8838 214.727 79.9842 214.578 79.9842ZM212.356 72.616C210.052 72.616 208.189 74.5623 208.189 76.9056C208.189 79.252 210.052 81.1674 212.356 81.1674C214.647 81.1674 216.528 79.252 216.528 76.9056C216.528 74.5623 214.647 72.616 212.356 72.616ZM212.356 82.051C209.557 82.051 207.324 79.7401 207.324 76.9056C207.324 74.0758 209.557 71.7587 212.356 71.7587C215.124 71.7587 217.399 74.0758 217.399 76.9056C217.399 79.7401 215.124 82.051 212.356 82.051Z" fill="#0071C5"/>
</svg>
